<svg width="359" height="128" viewBox="0 0 359 128" fill="none" xmlns="http://www.w3.org/2000/svg">
<path d="M26.976 112.784C22.496 112.784 18.88 111.6 16.128 109.232C13.44 106.864 12.096 103.44 12.096 98.96C12.096 96.464 12.352 94.288 12.864 92.432C13.376 90.576 13.888 88.72 14.4 86.864C14.912 85.008 15.168 82.864 15.168 80.432C15.168 78.064 14.336 75.92 12.672 74C11.072 72.08 8.256 70.736 4.224 69.968V62.96C8.256 62.192 11.072 60.848 12.672 58.928C14.336 56.944 15.168 54.8 15.168 52.496C15.168 50.064 14.912 47.92 14.4 46.064C13.888 44.144 13.376 42.256 12.864 40.4C12.352 38.48 12.096 36.336 12.096 33.968C12.096 29.488 13.44 26.064 16.128 23.696C18.88 21.328 22.496 20.144 26.976 20.144H32.256V27.056H28.896C26.272 27.056 24.256 27.664 22.848 28.88C21.44 30.096 20.736 32.016 20.736 34.64C20.736 36.432 20.992 38.256 21.504 40.112C22.016 41.904 22.528 43.824 23.04 45.872C23.552 47.92 23.808 50.224 23.808 52.784C23.808 56.112 22.912 58.992 21.12 61.424C19.328 63.856 16.256 65.52 11.904 66.416V66.512C16.256 67.344 19.328 68.976 21.12 71.408C22.912 73.84 23.808 76.752 23.808 80.144C23.808 82.64 23.552 84.944 23.04 87.056C22.528 89.104 22.016 91.056 21.504 92.912C20.992 94.704 20.736 96.496 20.736 98.288C20.736 100.912 21.44 102.832 22.848 104.048C24.256 105.264 26.272 105.872 28.896 105.872H32.256V112.784H26.976Z" fill="#32B832"/>
<path d="M44.952 98V50.384H53.592V98H44.952ZM43.992 41.264V30.704H54.456V41.264H43.992ZM60.3038 98V50.384H68.9438V58.256C70.4798 55.44 72.6558 53.232 75.4718 51.632C78.2878 50.032 81.4878 49.232 85.0718 49.232C90.7038 49.232 95.1838 50.96 98.5118 54.416C101.84 57.872 103.504 63.184 103.504 70.352V98H94.8638V71.216C94.8638 66.352 93.8398 62.704 91.7918 60.272C89.8078 57.84 86.8318 56.624 82.8638 56.624C78.8318 56.624 75.5038 58.096 72.8798 61.04C70.2558 63.92 68.9438 68.016 68.9438 73.328V98H60.3038ZM124.69 98C122.002 98 119.73 97.68 117.874 97.04C116.018 96.336 114.61 95.056 113.65 93.2C112.754 91.344 112.306 88.72 112.306 85.328V57.68H104.05V50.384H112.306V38.768H120.946V50.384H134.386V57.68H120.946V83.984C120.946 86.032 121.106 87.536 121.426 88.496C121.746 89.456 122.418 90.064 123.442 90.32C124.466 90.512 125.938 90.608 127.858 90.608H133.714V98H124.69ZM157.132 99.152C152.524 99.152 148.428 98.128 144.844 96.08C141.324 93.968 138.54 91.056 136.492 87.344C134.508 83.632 133.516 79.28 133.516 74.288C133.516 69.232 134.508 64.848 136.492 61.136C138.476 57.36 141.26 54.448 144.844 52.4C148.428 50.288 152.556 49.232 157.228 49.232C161.9 49.232 165.9 50.288 169.228 52.4C172.62 54.448 175.212 57.168 177.004 60.56C178.86 63.952 179.788 67.664 179.788 71.696C179.788 72.336 179.788 73.04 179.788 73.808C179.788 74.512 179.756 75.28 179.692 76.112H139.948V69.776H171.244C171.052 65.616 169.612 62.352 166.924 59.984C164.3 57.616 161.004 56.432 157.036 56.432C154.348 56.432 151.852 57.04 149.548 58.256C147.244 59.408 145.388 61.168 143.98 63.536C142.636 65.84 141.964 68.72 141.964 72.176V74.768C141.964 78.544 142.668 81.712 144.076 84.272C145.484 86.832 147.34 88.752 149.644 90.032C151.948 91.312 154.412 91.952 157.036 91.952C160.236 91.952 162.924 91.216 165.1 89.744C167.276 88.272 168.876 86.256 169.9 83.696H178.444C177.612 86.576 176.236 89.2 174.316 91.568C172.396 93.936 169.964 95.792 167.02 97.136C164.14 98.48 160.844 99.152 157.132 99.152ZM208.265 120.272C204.105 120.272 200.297 119.536 196.841 118.064C193.385 116.656 190.473 114.576 188.105 111.824C185.801 109.136 184.329 105.84 183.689 101.936H192.233C193.129 105.136 195.017 107.728 197.897 109.712C200.841 111.76 204.265 112.784 208.169 112.784C211.241 112.784 213.993 112.112 216.425 110.768C218.857 109.488 220.777 107.536 222.185 104.912C223.657 102.352 224.393 99.184 224.393 95.408V88.592C223.369 90.32 221.993 91.984 220.265 93.584C218.601 95.12 216.585 96.4 214.217 97.424C211.913 98.384 209.225 98.864 206.153 98.864C201.673 98.864 197.609 97.776 193.961 95.6C190.313 93.424 187.433 90.48 185.321 86.768C183.209 82.992 182.153 78.736 182.153 74C182.153 69.2 183.209 64.944 185.321 61.232C187.433 57.52 190.313 54.608 193.961 52.496C197.609 50.32 201.673 49.232 206.153 49.232C210.313 49.232 213.961 50.16 217.097 52.016C220.297 53.872 222.729 56.08 224.393 58.64V50.384H233.033V95.12C233.033 100.368 231.945 104.848 229.769 108.56C227.657 112.336 224.713 115.216 220.937 117.2C217.225 119.248 213.001 120.272 208.265 120.272ZM207.497 91.376C210.697 91.376 213.545 90.64 216.041 89.168C218.537 87.696 220.489 85.648 221.897 83.024C223.305 80.4 224.009 77.392 224.009 74C224.009 70.544 223.305 67.536 221.897 64.976C220.489 62.352 218.537 60.336 216.041 58.928C213.545 57.456 210.697 56.72 207.497 56.72C204.361 56.72 201.545 57.456 199.049 58.928C196.553 60.336 194.569 62.352 193.097 64.976C191.689 67.536 190.985 70.544 190.985 74C190.985 77.328 191.689 80.336 193.097 83.024C194.569 85.648 196.553 87.696 199.049 89.168C201.545 90.64 204.361 91.376 207.497 91.376ZM260.501 99.152C255.893 99.152 251.797 98.128 248.213 96.08C244.693 93.968 241.909 91.056 239.861 87.344C237.877 83.632 236.885 79.28 236.885 74.288C236.885 69.232 237.877 64.848 239.861 61.136C241.845 57.36 244.629 54.448 248.213 52.4C251.797 50.288 255.925 49.232 260.597 49.232C265.269 49.232 269.269 50.288 272.597 52.4C275.989 54.448 278.581 57.168 280.373 60.56C282.229 63.952 283.156 67.664 283.156 71.696C283.156 72.336 283.156 73.04 283.156 73.808C283.156 74.512 283.125 75.28 283.061 76.112H243.317V69.776H274.613C274.421 65.616 272.981 62.352 270.293 59.984C267.669 57.616 264.373 56.432 260.405 56.432C257.717 56.432 255.221 57.04 252.917 58.256C250.613 59.408 248.757 61.168 247.349 63.536C246.005 65.84 245.333 68.72 245.333 72.176V74.768C245.333 78.544 246.037 81.712 247.445 84.272C248.853 86.832 250.709 88.752 253.013 90.032C255.317 91.312 257.781 91.952 260.405 91.952C263.605 91.952 266.293 91.216 268.469 89.744C270.645 88.272 272.245 86.256 273.269 83.696H281.812C280.981 86.576 279.605 89.2 277.685 91.568C275.765 93.936 273.333 95.792 270.389 97.136C267.509 98.48 264.213 99.152 260.501 99.152ZM288.21 98V50.384H296.85V57.872C297.938 55.376 299.41 53.456 301.266 52.112C303.122 50.704 305.394 50 308.082 50H315.186V58.064H307.218C305.17 58.064 303.346 58.64 301.746 59.792C300.21 60.944 298.994 62.8 298.098 65.36C297.266 67.856 296.85 71.184 296.85 75.344V98H288.21Z" fill="#1C221C"/>
<path d="M326.704 112.784V105.872H330.064C332.688 105.872 334.704 105.264 336.112 104.048C337.52 102.832 338.224 100.912 338.224 98.288C338.224 96.496 337.968 94.704 337.456 92.912C336.944 91.056 336.432 89.104 335.92 87.056C335.408 84.944 335.152 82.64 335.152 80.144C335.152 76.752 336.048 73.84 337.84 71.408C339.632 68.976 342.704 67.344 347.056 66.512V66.416C342.704 65.52 339.632 63.856 337.84 61.424C336.048 58.992 335.152 56.112 335.152 52.784C335.152 50.224 335.408 47.92 335.92 45.872C336.432 43.824 336.944 41.904 337.456 40.112C337.968 38.256 338.224 36.432 338.224 34.64C338.224 32.016 337.52 30.096 336.112 28.88C334.704 27.664 332.688 27.056 330.064 27.056H326.704V20.144H331.984C336.464 20.144 340.048 21.328 342.736 23.696C345.488 26.064 346.864 29.488 346.864 33.968C346.864 36.336 346.608 38.48 346.096 40.4C345.584 42.256 345.072 44.144 344.56 46.064C344.048 47.92 343.792 50.064 343.792 52.496C343.792 54.8 344.592 56.944 346.192 58.928C347.856 60.848 350.704 62.192 354.736 62.96V69.968C350.704 70.736 347.856 72.08 346.192 74C344.592 75.92 343.792 78.064 343.792 80.432C343.792 82.864 344.048 85.008 344.56 86.864C345.072 88.72 345.584 90.576 346.096 92.432C346.608 94.288 346.864 96.464 346.864 98.96C346.864 103.44 345.488 106.864 342.736 109.232C340.048 111.6 336.464 112.784 331.984 112.784H326.704Z" fill="#32B832"/>
</svg>
