<svg width="177" height="128" viewBox="0 0 177 128" fill="none" xmlns="http://www.w3.org/2000/svg">
<path d="M26.976 112.784C22.496 112.784 18.88 111.6 16.128 109.232C13.44 106.864 12.096 103.44 12.096 98.96C12.096 96.464 12.352 94.288 12.864 92.432C13.376 90.576 13.888 88.72 14.4 86.864C14.912 85.008 15.168 82.864 15.168 80.432C15.168 78.064 14.336 75.92 12.672 74C11.072 72.08 8.256 70.736 4.224 69.968V62.96C8.256 62.192 11.072 60.848 12.672 58.928C14.336 56.944 15.168 54.8 15.168 52.496C15.168 50.064 14.912 47.92 14.4 46.064C13.888 44.144 13.376 42.256 12.864 40.4C12.352 38.48 12.096 36.336 12.096 33.968C12.096 29.488 13.44 26.064 16.128 23.696C18.88 21.328 22.496 20.144 26.976 20.144H32.256V27.056H28.896C26.272 27.056 24.256 27.664 22.848 28.88C21.44 30.096 20.736 32.016 20.736 34.64C20.736 36.432 20.992 38.256 21.504 40.112C22.016 41.904 22.528 43.824 23.04 45.872C23.552 47.92 23.808 50.224 23.808 52.784C23.808 56.112 22.912 58.992 21.12 61.424C19.328 63.856 16.256 65.52 11.904 66.416V66.512C16.256 67.344 19.328 68.976 21.12 71.408C22.912 73.84 23.808 76.752 23.808 80.144C23.808 82.64 23.552 84.944 23.04 87.056C22.528 89.104 22.016 91.056 21.504 92.912C20.992 94.704 20.736 96.496 20.736 98.288C20.736 100.912 21.44 102.832 22.848 104.048C24.256 105.264 26.272 105.872 28.896 105.872H32.256V112.784H26.976Z" fill="#32B832"/>
<path d="M44.952 98V50.384H53.592V98H44.952ZM43.992 41.264V30.704H54.456V41.264H43.992ZM60.3038 98V50.384H68.9438V58.256C70.4798 55.44 72.6558 53.232 75.4718 51.632C78.2878 50.032 81.4878 49.232 85.0718 49.232C90.7038 49.232 95.1838 50.96 98.5118 54.416C101.84 57.872 103.504 63.184 103.504 70.352V98H94.8638V71.216C94.8638 66.352 93.8398 62.704 91.7918 60.272C89.8078 57.84 86.8318 56.624 82.8638 56.624C78.8318 56.624 75.5038 58.096 72.8798 61.04C70.2558 63.92 68.9438 68.016 68.9438 73.328V98H60.3038ZM124.69 98C122.002 98 119.73 97.68 117.874 97.04C116.018 96.336 114.61 95.056 113.65 93.2C112.754 91.344 112.306 88.72 112.306 85.328V57.68H104.05V50.384H112.306V38.768H120.946V50.384H134.386V57.68H120.946V83.984C120.946 86.032 121.106 87.536 121.426 88.496C121.746 89.456 122.418 90.064 123.442 90.32C124.466 90.512 125.938 90.608 127.858 90.608H133.714V98H124.69Z" fill="#1C221C"/>
<path d="M144.704 112.784V105.872H148.064C150.688 105.872 152.704 105.264 154.112 104.048C155.52 102.832 156.224 100.912 156.224 98.288C156.224 96.496 155.968 94.704 155.456 92.912C154.944 91.056 154.432 89.104 153.92 87.056C153.408 84.944 153.152 82.64 153.152 80.144C153.152 76.752 154.048 73.84 155.84 71.408C157.632 68.976 160.704 67.344 165.056 66.512V66.416C160.704 65.52 157.632 63.856 155.84 61.424C154.048 58.992 153.152 56.112 153.152 52.784C153.152 50.224 153.408 47.92 153.92 45.872C154.432 43.824 154.944 41.904 155.456 40.112C155.968 38.256 156.224 36.432 156.224 34.64C156.224 32.016 155.52 30.096 154.112 28.88C152.704 27.664 150.688 27.056 148.064 27.056H144.704V20.144H149.984C154.464 20.144 158.048 21.328 160.736 23.696C163.488 26.064 164.864 29.488 164.864 33.968C164.864 36.336 164.608 38.48 164.096 40.4C163.584 42.256 163.072 44.144 162.56 46.064C162.048 47.92 161.792 50.064 161.792 52.496C161.792 54.8 162.592 56.944 164.192 58.928C165.856 60.848 168.704 62.192 172.736 62.96V69.968C168.704 70.736 165.856 72.08 164.192 74C162.592 75.92 161.792 78.064 161.792 80.432C161.792 82.864 162.048 85.008 162.56 86.864C163.072 88.72 163.584 90.576 164.096 92.432C164.608 94.288 164.864 96.464 164.864 98.96C164.864 103.44 163.488 106.864 160.736 109.232C158.048 111.6 154.464 112.784 149.984 112.784H144.704Z" fill="#32B832"/>
</svg>
